Coordinates
version=1
nRows=11
nColumns=36
inDegrees=yes

Units are S.I. units (second, meters, Newtons, ...)
If the header above contains a line with 'inDegrees', this indicates whether rotational values are in degrees (yes) or radians (no).

endheader
time	pelvis_tilt	pelvis_list	pelvis_rotation	pelvis_tx	pelvis_ty	pelvis_tz	hip_flexion_r	hip_adduction_r	hip_rotation_r	knee_angle_r	knee_angle_r_beta	ankle_angle_r	subtalar_angle_r	mtp_angle_r	hip_flexion_l	hip_adduction_l	hip_rotation_l	knee_angle_l	knee_angle_l_beta	ankle_angle_l	subtalar_angle_l	mtp_angle_l	lumbar_extension	lumbar_bending	lumbar_rotation	arm_flex_r	arm_add_r	arm_rot_r	elbow_flex_r	pro_sup_r	arm_flex_l	arm_add_l	arm_rot_l	elbow_flex_l	pro_sup_l
      3.60000000	      7.60692911	     -0.85662967	      1.84886184	     -0.61818330	      0.58228059	     -0.62247141	     86.80817560	    -10.20125757	      1.54536675	    100.04096976	      1.74604431	      8.48218010	     -7.83403541	     -7.49999987	     86.69357430	     -3.33766942	      8.10088985	    102.27498533	      1.78503524	     10.38172574	     -4.34765010	     -7.49999987	    -27.99546052	      1.56773861	     -2.63613308	     11.90368139	     -6.19792364	     -6.43378694	    132.44346919	    107.76623912	     10.39239429	     -7.52696406	    -16.05417676	    132.47615754	     96.07994804
      3.61000000	      7.94079598	     -0.88188620	      1.90758279	     -0.61949274	      0.58239512	     -0.62258273	     86.50056606	    -10.24872963	      1.51576061	     99.97237315	      1.74484707	      8.40929451	     -7.80114010	     -7.49999987	     86.41153049	     -3.32025039	      8.09102197	    102.17569149	      1.78330223	     10.26384982	     -4.34257456	     -7.49999987	    -27.91308087	      1.60963440	     -2.73622333	     11.17518008	     -6.15602434	     -6.52023513	    132.38000724	    107.76112771	      9.78184302	     -7.28098558	    -16.12632567	    132.44888403	     96.08272913
      3.62000000	      8.29499929	     -0.91048526	      1.96527604	     -0.62071436	      0.58266454	     -0.62277497	     86.14019130	    -10.31352688	      1.45379490	     99.89179392	      1.74344070	      8.33423767	     -7.76836288	     -7.49999987	     86.08798466	     -3.27610112	      8.09345332	    102.09228842	      1.78184657	     10.13879323	     -4.34766644	     -7.49999987	    -27.88138050	      1.66930136	     -2.80680953	     10.48295597	     -6.12284949	     -6.63792137	    132.28127147	    107.75043528	      9.17200965	     -7.00570646	    -16.21047364	    132.40946605	     96.08569912
      3.63000000	      8.66308944	     -0.92900932	      2.00900741	     -0.62195857	      0.58288460	     -0.62305544	     85.77361304	    -10.36861534	      1.42135845	     99.80356695	      1.74190085	      8.25929472	     -7.73717140	     -7.49999987	     85.76082505	     -3.25684559	      8.07963385	    102.03286294	      1.78080940	     10.01802154	     -4.36665208	     -7.49999987	    -27.89987352	      1.71215819	     -2.87064305	      9.89632946	     -6.11328053	     -6.79861610	    132.15892212	    107.73511609	      8.63828019	     -6.72079534	    -16.31736946	    132.35354860	     96.08674820
      3.64000000	      9.26090423	     -0.93576341	      2.06799804	     -0.62333388	      0.58354440	     -0.62336076	     85.13313704	    -10.46297819	      1.36433744	     99.70102904	      1.74011122	      8.09113147	     -7.70026703	     -7.49999987	     85.17696023	     -3.21872388	      8.06053425	    101.96516244	      1.77962781	      9.75392291	     -4.52123137	     -7.49999987	    -28.22172202	      1.74645151	     -2.90377264	      9.50715872	     -6.02044641	     -7.23767927	    131.96547140	    107.70048264	      8.32750132	     -6.34219481	    -16.67693401	    132.27932097	     96.11231668
      3.65000000	      9.52345139	     -0.94314556	      2.08317185	     -0.62442848	      0.58372166	     -0.62349044	     84.87222101	    -10.45407433	      1.35251717	     99.61901512	      1.73867981	      8.04517003	     -7.69636224	     -7.49999987	     84.93444607	     -3.24472910	      8.01316821	    101.89010365	      1.77831778	      9.70169633	     -4.54878824	     -7.49999987	    -28.14966104	      1.75956412	     -2.95623221	      8.98619627	     -6.01432630	     -7.26387549	    131.85460892	    107.69194873	      7.81600170	     -6.14832200	    -16.66468561	    132.20090288	     96.12204402
      3.66000000	      9.94883528	     -0.94067250	      2.10721870	     -0.62554152	      0.58419478	     -0.62365024	     84.42571817	    -10.48293680	      1.32344177	     99.53667689	      1.73724274	      7.90556802	     -7.71107887	     -7.49999987	     84.50435489	     -3.23847135	      7.98182504	    101.81853841	      1.77706873	      9.58819433	     -4.64453967	     -7.49999987	    -28.28287388	      1.76510994	     -2.98807234	      8.60742998	     -6.01261816	     -7.37026918	    131.60549321	    107.66354935	      7.44563273	     -5.94722617	    -16.68405263	    132.05665028	     96.15798572
      3.67000000	     10.18022250	     -0.93276270	      2.12050303	     -0.62648007	      0.58438033	     -0.62370786	     84.20045688	    -10.47434615	      1.33700587	     99.44762266	      1.73568845	      7.85769845	     -7.71637111	     -7.49999987	     84.27267606	     -3.24547248	      7.95315342	    101.74202235	      1.77573328	      9.54240604	     -4.66089826	     -7.49999987	    -28.22118728	      1.75035345	     -3.00845953	      8.20641762	     -5.98692165	     -7.38460340	    131.49460899	    107.65341748	      7.01072877	     -5.79241158	    -16.65582007	    131.96527913	     96.16765174
      3.68000000	     10.47956422	     -0.88834799	      2.13185125	     -0.62751001	      0.58469517	     -0.62372693	     83.90623465	    -10.49386910	      1.33823134	     99.36071413	      1.73417161	      7.73325587	     -7.62591230	     -7.49999987	     83.97107498	     -3.27251082	      7.86443028	    101.63293538	      1.77382935	      9.35095101	     -4.68172769	     -7.49999987	    -28.25058858	      1.69855525	     -3.00753546	      7.98314682	     -5.96067852	     -7.26549200	    131.47954079	    105.49087181	      6.81983371	     -5.67614214	    -16.45142844	    131.93002552	     94.80896878
      3.69000000	     10.79615801	     -0.87500880	      2.10999088	     -0.62821309	      0.58495886	     -0.62369668	     83.57850441	    -10.41390391	      1.37508691	     99.32091438	      1.73347697	      7.69065215	     -7.80507352	     -7.49999987	     83.65420319	     -3.31460295	      7.83949093	    101.61327799	      1.77348626	      9.28855794	     -4.83818465	     -7.49999987	    -28.31504756	      1.65864841	     -2.96126297	      7.55128322	     -5.98002777	     -7.37717546	    131.46262037	    104.42075944	      6.39213975	     -5.53986164	    -16.45295582	    132.00462128	     93.91736328
      3.70000000	     11.00886930	     -0.86914520	      2.10295962	     -0.62896129	      0.58506380	     -0.62364999	     83.36817870	    -10.36845642	      1.37796948	     99.26134409	      1.73243727	      7.59626264	     -7.85450221	     -7.49999987	     83.45200615	     -3.32929473	      7.83972034	    101.55837010	      1.77252794	      9.17928254	     -4.86469145	     -7.49999987	    -28.27702993	      1.62267706	     -2.93918955	      7.30456461	     -5.98693393	     -7.36503781	    131.38931804	    104.34939830	      6.12144601	     -5.43064741	    -16.38203334	    131.95567613	     93.64469044
